PathFileType   4   (X/Y/Z)																																																																																																																							
DataRate	CameraRate	NumFrames	NumMarkers	Units	OrigDataRate	OrigDataStartFrame	OrigNumFrames																																																																																																																
120	120	4	37	mm	120	1	125																																																																																																																
Frame#	Time	Sternum	R.Acromium	L.Acromium	Top.Head	R.ASIS	L.ASIS	V.Sacral	R.Thigh.Upper	R.Thigh.Front	R.Thigh.Rear	R.Knee.Lat	R.Knee.Med	R.Shank.Upper	R.Shank.Front	R.Shank.Rear	R.Ankle.Lat	R.Ankle.Med	R.Heel	R.Midfoot.Sup	R.Midfoot.Lat	R.Toe.Lat	R.Toe.Med	R.Toe.Tip	L.Thigh.Upper	L.Thigh.Front	L.Thigh.Rear	L.Knee.Lat	L.Knee.Med	L.Shank.Upper	L.Shank.Front	L.Shank.Rear	L.Ankle.Lat	L.Ankle.Med	L.Heel	L.Midfoot.Sup	L.Midfoot.Lat	L.Toe.Lat	L.Toe.Med	L.Toe.Tip																																																																															
 	 	X1	Y1	Z1	X2	Y2	Z2	X3	Y3	Z3	X4	Y4	Z4	X5	Y5	Z5	X6	Y6	Z6	X7	Y7	Z7	X8	Y8	Z8	X9	Y9	Z9	X10	Y10	Z10	X11	Y11	Z11	X12	Y12	Z12	X13	Y13	Z13	X14	Y14	Z14	X15	Y15	Z15	X16	Y16	Z16	X17	Y17	Z17	X18	Y18	Z18	X19	Y19	Z19	X20	Y20	Z20	X21	Y21	Z21	X22	Y22	Z22	X23	Y23	Z23	X24	Y24	Z24	X25	Y25	Z25	X26	Y26	Z26	X27	Y27	Z27	X28	Y28	Z28	X29	Y29	Z29	X30	Y30	Z30	X31	Y31	Z31	X32	Y32	Z32	X33	Y33	Z33	X34	Y34	Z34	X35	Y35	Z35	X36	Y36	Z36	X37	Y37	Z37	X38	Y38	Z38	X39	Y39	Z39	
																																																																																																																							
	1	0.15	1340.757744	-0.001002095	1345.600133	1263.628869	-161.9453511	1409.567278	1266.371897	165.1979949	1409.369546	1361.299422	-10.08809499	1637.055662	1372.848309	-117.7896216	979.0021157	1378.83424	119.399185	971.8491491	1196.349254	-5.611229398	974.4570901	1316.200028	-173.4115572	633.9834953	1369.986366	-67.95180237	558.0133701	1286.350192	-162.9734513	503.0345981	1229.9572	-142.5943975	415.2537602	1225.510613	-8.355853302	397.2251529	1170.122547	-154.6508593	414.2395507	1201.368396	-93.81404015	327.1438915	1115.123424	-165.0122006	334.5291558	890.7789391	-136.9768135	107.8553644	908.4100099	-37.22329306	113.1267856	839.0393689	-79.10633289	163.4313944	912.0727397	-41.71858376	29.70867722	890.6962802	-155.3841374	26.24812368	906.2518019	-165.0174344	-70.71536431	919.900592	-50.15543807	-67.3137849	946.7202821	-83.79364801	-126.0272037	1403.737802	178.8034865	678.0161155	1500.551097	95.03600439	662.0723147	1431.877499	161.7547942	560.5045612	1450.042529	144.5366564	414.8396415	1451.075934	15.87918741	416.0189584	1438.407497	162.4477689	385.8650658	1489.233403	100.5194763	331.3974246	1420.441316	174.5177999	337.1629145	1448.870693	136.4325857	-12.85217382	1452.708443	34.31683281	13.29159572	1366.193256	76.11439987	-33.26828171	1548.724293	48.15109198	-28.87855461	1529.249936	152.6198727	-29.05261823	1596.47539	163.716336	-53.07314876	1614.52721	55.50675189	-52.93323437	1666.63135	82.30973808	-51.58835236
	2	0.15833	1350.067178	-0.001002095	1347.174573	1272.891368	-161.9453511	1411.085083	1275.63454	165.1979949	1410.889364	1370.394902	-10.08809499	1638.645102	1382.3712	-117.7896216	980.4245521	1388.35133	119.399185	973.2667344	1205.868518	-5.611229398	976.0226318	1331.684252	-173.4115572	636.1193254	1387.300631	-67.95180237	561.4785296	1305.025024	-162.9734513	504.4837986	1250.781579	-142.5943975	415.3586407	1246.774364	-8.355853302	397.2273131	1190.150071	-154.6508593	414.838692	1220.294829	-93.81404015	327.3558338	1134.149875	-165.0122006	335.8283852	906.9640257	-136.9768135	112.0024578	924.6601863	-37.22329306	117.0510653	854.7164348	-79.10633289	167.0711407	928.8134568	-41.71858376	33.93485839	907.4652624	-155.3841374	30.30401219	923.793235	-165.0174344	-66.53239401	937.4144757	-50.15543807	-63.02212125	964.7013482	-83.79364801	-121.5198812	1410.248481	178.8034865	677.937629	1506.82437	95.03600439	660.6137589	1436.708218	161.7547942	560.0364407	1452.792508	144.5366564	414.1271101	1453.842639	15.87918741	415.2915583	1441.119117	162.4477689	385.366686	1491.480198	100.5194763	330.4689808	1422.739605	174.5177999	336.8190109	1448.192746	136.4325857	-13.42508844	1452.252586	34.31683281	12.68511483	1365.491602	76.11439987	-33.77052994	1548.024556	48.15109198	-29.46125636	1528.550124	152.6198727	-29.62673637	1595.764985	163.716336	-53.67689512	1613.816864	55.50675189	-53.54493733	1665.921591	82.30973808	-52.22302108
	3	0.16667	1359.369429	-0.001002095	1348.733092	1282.150012	-161.9453511	1412.590908	1284.893318	165.1979949	1412.397062	1379.498197	-10.08809499	1640.217428	1391.87101	-117.7896216	981.839096	1397.845564	119.399185	974.6766238	1215.364954	-5.611229398	977.574618	1347.127261	-173.4115572	638.3907556	1404.539736	-67.95180237	565.1224962	1323.672386	-162.9734513	506.1466812	1271.609153	-142.5943975	415.7306158	1268.043401	-8.355853302	397.5073279	1210.213894	-154.6508593	415.6618918	1239.295511	-93.81404015	327.8198945	1153.25964	-165.0122006	337.3365222	923.3761102	-136.9768135	116.2821887	941.1321951	-37.22329306	121.1158195	870.5548761	-79.10633289	170.7731254	945.8714431	-41.71858376	38.32293448	924.5574932	-155.3841374	34.49618822	941.7740837	-165.0174344	-62.18618489	955.362513	-50.15543807	-58.55096819	983.1854545	-83.79364801	-116.7956697	1416.720895	178.8034865	677.8926574	1513.040042	95.03600439	659.193976	1441.497407	161.7547942	559.6262956	1455.500303	144.5366564	413.502526	1456.566925	15.87918741	414.6518876	1443.792238	162.4477689	384.9533923	1493.685587	100.5194763	329.6302481	1425.001362	174.5177999	336.5634532	1447.481054	136.4325857	-13.88405362	1451.762346	34.31683281	12.19075328	1364.75627	76.11439987	-34.15757298	1547.29117	48.15109198	-29.93149398	1527.816664	152.6198727	-30.088098	1595.020556	163.716336	-54.16888916	1613.072493	55.50675189	-54.045159	1665.177818	82.30973808	-52.74699097
	4	0.175	1368.657722	-0.001002095	1350.260719	1291.401173	-161.9453511	1414.073606	1294.144591	165.1979949	1413.881355	1388.616931	-10.08809499	1641.756714	1401.325867	-117.7896216	983.2386157	1407.295317	119.399185	976.0718888	1224.816817	-5.611229398	979.0998899	1362.501786	-173.4115572	640.7862837	1421.673909	-67.95180237	568.9316388	1342.260314	-162.9734513	508.0123812	1292.404696	-142.5943975	416.3605268	1289.28185	-8.355853302	398.0561381	1230.287674	-154.6508593	416.6753156	1258.387394	-93.81404015	328.5143115	1172.46306	-165.0122006	338.9902818	940.127451	-136.9768135	120.5146062	957.9363614	-37.22329306	125.1498248	886.6066091	-79.10633289	174.2927823	963.4433177	-41.71858376	42.71862624	942.174845	-155.3841374	38.64670823	960.5035703	-165.0174344	-57.83100985	974.0492401	-50.15543807	-54.03956637	1002.541012	-83.79364801	-111.9600313	1423.140888	178.8034865	677.8733014	1519.184445	95.03600439	657.8070578	1446.233401	161.7547942	559.2666248	1458.157315	144.5366564	412.958534	1459.240171	15.87918741	414.0926144	1446.41834	162.4477689	384.6175562	1495.841744	100.5194763	328.8741823	1427.218649	174.5177999	336.388363	1446.731957	136.4325857	-14.2368248	1451.233748	34.31683281	11.80081906	1363.983336	76.11439987	-34.43599787	1546.520269	48.15109198	-30.29869462	1527.04569	152.6198727	-30.44582726	1594.237862	163.716336	-54.55929997	1612.289858	55.50675189	-54.44434932	1664.395808	82.30973808	-53.1715227
